<!-- Generator: Adobe Illustrator 22.0.1, SVG Export Plug-In  -->
<svg version="1.1"
	 xmlns="http://www.w3.org/2000/svg" xmlns:xlink="http://www.w3.org/1999/xlink" xmlns:a="http://ns.adobe.com/AdobeSVGViewerExtensions/3.0/"
	 x="0px" y="0px" width="602.5px" height="342.6px" viewBox="0 0 602.5 342.6" style="enable-background:new 0 0 602.5 342.6;"
	 xml:space="preserve">
<style type="text/css">
	.st0{stroke:#000000;stroke-miterlimit:10;}
</style>
<defs>
</defs>
<polygon class="st0" points="235.9,75.9 278.9,75.8 301,88.4 279,100.7 "/>
<polygon class="st0" points="258,113.1 322.5,76 364.9,75.7 279.2,125.4 "/>
<polygon class="st0" points="150.6,76 193.2,75.9 301,137.8 279,150.2 "/>
<polygon class="st0" points="108.4,76 215,137.5 235.5,125.8 257,137.9 236,149.9 300,187 279,199.4 108.4,101.2 108.2,200
	108.1,274.1 86.5,261.6 86.6,88.6 "/>
<polygon class="st0" points="128.9,237.6 129.5,261.8 257.8,187.6 236,174.9 "/>
<polygon class="st0" points="472,88.4 471.7,112.9 365,174.2 343,162.3 "/>
<polygon class="st0" points="450.1,273.2 322,199.2 300.3,211.7 402,274.1 "/>
<polygon class="st0" points="321.9,273.8 364.4,274.1 323,248.7 301.2,261.2 "/>
<polygon class="st0" points="236,273.8 322,223.9 343,236.7 278.9,273.2 "/>
<polygon class="st0" points="129.1,187.8 129.6,212.2 215,162.6 193.5,150.2 "/>
<polygon class="st0" points="386,162.1 472,212.3 471.9,187 407.4,150 "/>
<polygon class="st0" points="257.2,236.3 279,248.8 300.5,236 278.9,223.9 "/>
<polygon class="st0" points="450.7,25.6 451.1,0.9 600.6,88.3 557.1,87.8 514.5,62.9 514,260.7 493,273.5 300.6,162.7 322.1,150
	493.2,248.6 494,51.2 "/>
<polygon class="st0" points="1.9,88.3 151.6,2.9 151.7,27.1 126.4,41.4 434.6,41.4 471.7,63.9 279.2,174.9 257.6,162.4 321.6,125.2
	300,113 322,100.9 343,112.8 428.9,63.4 86.7,63.8 43.8,88.5 "/>
<polygon class="st0" points="322,174.6 343.2,186.9 172,286.3 471.9,286.3 434,307.4 170.3,307.4 128.9,285.9 "/>
<polygon class="st0" points="174.9,342.1 441.8,342.1 403.9,320.7 199,320.7 160.6,342.1 "/>
</svg>
