<svg id="Layer_4" data-name="Layer 4" xmlns="http://www.w3.org/2000/svg" viewBox="0 0 564.42 340.9"><defs><style>.cls-1{fill:#000000;stroke:#000000;stroke-miterlimit:10;stroke-width:4px;}</style></defs><title>dagurasu_solid</title><polygon class="cls-1" points="217.16 64.69 238.24 52.18 282.24 77.21 260.24 89.58 217.16 64.69"/><polygon class="cls-1" points="239.24 101.94 325.24 52.48 346.18 64.57 260.5 114.22 239.24 101.94"/><polygon class="cls-1" points="131.86 64.82 153.24 52.48 282.24 126.67 260.24 139.04 131.86 64.82"/><polygon class="cls-1" points="89.69 64.79 196.24 126.38 216.74 114.64 238.25 126.75 217.24 138.74 281.24 175.84 260.24 188.22 89.69 90.08 89.52 188.81 89.4 262.88 67.78 250.39 67.9 77.45 89.69 64.79"/><polygon class="cls-1" points="89.24 238.67 110.74 250.63 239.09 176.39 217.24 163.77 89.24 238.67"/><polygon class="cls-1" points="453.24 77.21 474.24 89.51 346.24 163.07 324.24 151.11 453.24 77.21"/><polygon class="cls-1" points="431.34 262.07 303.24 187.99 281.63 200.56 410.24 274.26 431.34 262.07"/><polygon class="cls-1" points="324.24 275.29 345.72 262.88 304.24 237.52 282.52 250.06 324.24 275.29"/><polygon class="cls-1" points="217.32 262.58 303.24 212.76 324.24 225.5 238.4 274.75 217.32 262.58"/><polygon class="cls-1" points="89.52 188.81 110.86 201.08 196.24 151.42 174.83 139.03 89.52 188.81"/><polygon class="cls-1" points="367.3 150.91 453.24 201.12 474.18 187.94 388.72 138.78 367.3 150.91"/><polygon class="cls-1" points="238.51 225.12 260.24 237.67 281.83 224.87 260.21 212.68 238.51 225.12"/><polygon class="cls-1" points="432.01 14.47 453.07 2.31 560.35 64.62 538.4 76.63 495.82 51.74 495.24 249.57 474.24 262.32 281.92 151.56 303.34 138.86 474.43 237.4 475.24 39.99 432.01 14.47"/><polygon class="cls-1" points="4.01 65.14 111.07 3.64 133.01 15.95 107.63 30.23 415.9 30.23 453.01 52.69 260.5 163.68 238.83 151.21 302.83 114 281.24 101.85 303.24 89.7 324.24 101.65 410.18 52.27 68.01 52.63 25.07 77.3 4.01 65.14"/><polygon class="cls-1" points="303.24 163.48 324.46 175.73 153.24 275.15 453.18 275.1 415.24 296.24 151.57 296.24 110.17 274.77 303.24 163.48"/><polygon class="cls-1" points="167 338.9 433.9 338.9 395.94 317.57 167 317.57 129.24 338.9 167 338.9"/></svg>